<?xml version="1.0" encoding="UTF-8" standalone="no"?>
<!-- Created with Inkscape (http://www.inkscape.org/) -->

<svg
   xmlns:dc="http://purl.org/dc/elements/1.1/"
   xmlns:cc="http://creativecommons.org/ns#"
   xmlns:rdf="http://www.w3.org/1999/02/22-rdf-syntax-ns#"
   xmlns:svg="http://www.w3.org/2000/svg"
   xmlns="http://www.w3.org/2000/svg"
   xmlns:sodipodi="http://sodipodi.sourceforge.net/DTD/sodipodi-0.dtd"
   xmlns:inkscape="http://www.inkscape.org/namespaces/inkscape"
   width="120"
   height="120"
   viewBox="0 0 31.75 31.75"
   version="1.1"
   id="svg5464"
   inkscape:version="0.92.4 (5da689c313, 2019-01-14)"
   sodipodi:docname="camera.svg">
  <defs
     id="defs5458" />
  <sodipodi:namedview
     id="base"
     pagecolor="#ffffff"
     bordercolor="#666666"
     borderopacity="1.0"
     inkscape:pageopacity="0.0"
     inkscape:pageshadow="2"
     inkscape:zoom="2.8"
     inkscape:cx="171.88926"
     inkscape:cy="-23.356717"
     inkscape:document-units="mm"
     inkscape:current-layer="layer2"
     showgrid="false"
     fit-margin-top="0"
     fit-margin-left="0"
     fit-margin-right="0"
     fit-margin-bottom="0"
     units="px"
     inkscape:window-width="1920"
     inkscape:window-height="1057"
     inkscape:window-x="-8"
     inkscape:window-y="-8"
     inkscape:window-maximized="1" />
  <metadata
     id="metadata5461">
    <rdf:RDF>
      <cc:Work
         rdf:about="">
        <dc:format>image/svg+xml</dc:format>
        <dc:type
           rdf:resource="http://purl.org/dc/dcmitype/StillImage" />
        <dc:title></dc:title>
      </cc:Work>
    </rdf:RDF>
  </metadata>
  <g
     inkscape:label="Capa 1"
     inkscape:groupmode="layer"
     id="layer1"
     transform="translate(-90.64814,-77.017857)"
     sodipodi:insensitive="true">
    <circle
       style="fill:#cccccc;stroke-width:0.26251629"
       class="cls-2"
       cx="106.52314"
       cy="92.89286"
       id="ellipse1048"
       r="15.875" />
  </g>
  <g
     inkscape:groupmode="layer"
     id="layer2"
     inkscape:label="Capa 2">
    <g
       id="g1062"
       transform="matrix(0.26486968,0,0,0.26359817,-242.36234,-81.604662)">
      <path
         inkscape:connector-curvature="0"
         d="m 938,355.83 c 0.86,-3.46 2.77,-6 6.31,-7.05 a 24.76,24.76 0 0 1 2.73,-0.5 c 0.68,-4.73 2.84,-6.54 7.76,-6.49 4.92,0.05 7.11,1.78 7.69,6.52 0.55,0 1.14,0 1.72,0.09 0.83,0.07 1.2,-0.21 1.41,-1.12 a 7.34,7.34 0 0 1 7.24,-6 c 6.61,-0.11 13.24,-0.11 19.85,0 a 7.32,7.32 0 0 1 7.35,6 c 0.23,1 0.69,1 1.46,1.07 a 20.25,20.25 0 0 1 4.21,0.44 c 3.52,1 5.28,3.63 6.19,7 V 391 c -1.79,6.21 -5.89,7.44 -10.62,7.41 -17.84,-0.12 -35.68,0 -53.52,-0.06 a 13.85,13.85 0 0 1 -3.41,-0.33 c -3.61,-0.95 -5.43,-3.6 -6.37,-7 z m 36.87,39.69 q 13.88,0 27.76,0 c 3.89,0 6.32,-2.4 6.33,-6.17 v -31.87 a 5.84,5.84 0 0 0 -6,-6.21 c -1.14,0 -2.3,-0.06 -3.44,0 -1.52,0.09 -2.18,-0.45 -2.16,-2.07 a 4.81,4.81 0 0 0 -4.87,-5.1 q -9.69,-0.12 -19.38,0 a 4.93,4.93 0 0 0 -4.89,5 c 0,2 -0.22,2.2 -2.29,2.2 h -18.4 c -4.31,0 -6.6,2.29 -6.6,6.55 0,10.35 0.12,20.7 -0.06,31 a 6.32,6.32 0 0 0 6.71,6.71 c 9.12,-0.12 18.2,-0.04 27.29,-0.04 z m -15.58,-47.34 c 0.59,-1.81 -0.25,-2.86 -1.8,-3.05 a 22.25,22.25 0 0 0 -5.47,0 c -1.55,0.2 -2.34,1.27 -1.75,3 z"
         id="path1052" />
      <path
         inkscape:connector-curvature="0"
         d="m 982.73,390.7 a 17.62,17.62 0 1 1 17.73,-17.3 17.52,17.52 0 0 1 -17.73,17.3 z m 14.88,-17.62 c -0.16,-8.2 -6.82,-14.89 -14.7,-14.79 -8.28,0.11 -15,6.86 -14.83,14.79 a 14.87,14.87 0 0 0 14.84,14.79 c 8.08,-0.08 14.85,-6.87 14.69,-14.79 z"
         id="path1054" />
      <path
         inkscape:connector-curvature="0"
         d="m 954.22,374 c 0,4.6 0,9.2 0,13.79 a 4.38,4.38 0 0 1 -3.23,4.29 4.18,4.18 0 0 1 -4.9,-1.28 6.07,6.07 0 0 1 -1.3,-3.41 q -0.15,-13.54 0,-27.09 a 4.75,4.75 0 1 1 9.49,0.07 c 0.07,4.55 0,9.09 0,13.63 z m -2.81,-0.11 c 0,-4.38 0,-8.76 0,-13.14 0,-1.31 -0.46,-2.28 -1.88,-2.42 -1.18,-0.12 -2,0.89 -2,2.47 0,3.18 0,6.35 0,9.53 0,5.53 0,11.06 0,16.59 0,1.71 0.8,2.64 2.1,2.47 1.3,-0.17 1.75,-1.13 1.75,-2.36 q 0.03,-6.56 0.03,-13.13 z"
         id="path1056" />
      <path
         inkscape:connector-curvature="0"
         d="m 997.48,357.93 a 4.76,4.76 0 0 1 9.51,0 4.76,4.76 0 0 1 -9.51,0 z m 5.18,-2.08 h -0.77 c -0.49,0.66 -1.25,1.26 -1.4,2 a 1.57,1.57 0 0 0 1.71,1.91 c 1.14,0 2,-0.7 1.78,-1.84 -0.13,-0.76 -0.86,-1.39 -1.32,-2.07 z"
         id="path1058" />
      <path
         inkscape:connector-curvature="0"
         d="m 995.54,373.16 a 12.7,12.7 0 1 1 -12.62,-12.77 12.6,12.6 0 0 1 12.62,12.77 z m -12.48,-9.91 a 9.86,9.86 0 1 0 9.63,10.15 9.91,9.91 0 0 0 -9.63,-10.15 z"
         id="path1060" />
    </g>
  </g>
</svg>
