<?xml version="1.0" encoding="UTF-8" standalone="no"?>
<!-- Created with Inkscape (http://www.inkscape.org/) -->

<svg
   xmlns:dc="http://purl.org/dc/elements/1.1/"
   xmlns:cc="http://creativecommons.org/ns#"
   xmlns:rdf="http://www.w3.org/1999/02/22-rdf-syntax-ns#"
   xmlns:svg="http://www.w3.org/2000/svg"
   xmlns="http://www.w3.org/2000/svg"
   xmlns:sodipodi="http://sodipodi.sourceforge.net/DTD/sodipodi-0.dtd"
   xmlns:inkscape="http://www.inkscape.org/namespaces/inkscape"
   width="399.95529"
   height="399.95529"
   viewBox="0 0 105.8215 105.8215"
   version="1.1"
   id="svg8"
   inkscape:version="0.92.4 (5da689c313, 2019-01-14)"
   sodipodi:docname="config.svg">
  <defs
     id="defs2" />
  <sodipodi:namedview
     id="base"
     pagecolor="#ffffff"
     bordercolor="#666666"
     borderopacity="1.0"
     inkscape:pageopacity="0.0"
     inkscape:pageshadow="2"
     inkscape:zoom="1.4"
     inkscape:cx="158.05039"
     inkscape:cy="149.72895"
     inkscape:document-units="mm"
     inkscape:current-layer="layer2"
     showgrid="false"
     fit-margin-top="0"
     fit-margin-left="0"
     fit-margin-right="0"
     fit-margin-bottom="0"
     inkscape:window-width="1920"
     inkscape:window-height="1057"
     inkscape:window-x="-8"
     inkscape:window-y="-8"
     inkscape:window-maximized="1"
     units="px" />
  <metadata
     id="metadata5">
    <rdf:RDF>
      <cc:Work
         rdf:about="">
        <dc:format>image/svg+xml</dc:format>
        <dc:type
           rdf:resource="http://purl.org/dc/dcmitype/StillImage" />
        <dc:title />
      </cc:Work>
    </rdf:RDF>
  </metadata>
  <g
     inkscape:groupmode="layer"
     id="layer2"
     inkscape:label="Capa 2"
     style="display:inline">
    <path
       sodipodi:type="star"
       style="display:inline;fill:#000000;fill-opacity:1;stroke:none;stroke-width:1.27085614;stroke-miterlimit:4;stroke-dasharray:none;stroke-opacity:1"
       id="path815"
       sodipodi:sides="8"
       sodipodi:cx="52.910751"
       sodipodi:cy="52.910752"
       sodipodi:r1="52.910675"
       sodipodi:r2="43.913101"
       sodipodi:arg1="0"
       sodipodi:arg2="0.39469923"
       inkscape:flatsided="false"
       inkscape:rounded="0.65"
       inkscape:randomized="0"
       d="m 105.82143,52.910751 c -0.0272,13.607337 -7.166655,4.314361 -12.373957,16.88593 -5.164865,12.469119 6.439302,11.003238 -3.123225,20.527567 -9.641095,9.602585 -8.118301,-2.016874 -20.689861,3.19045 -12.46911,5.164887 -3.22719,12.333742 -16.723636,12.306732 C 39.303415,105.7942 48.596391,98.654775 36.024822,93.447473 23.555702,88.282608 25.021584,99.886775 15.497254,90.324248 5.8946698,80.683153 17.514129,82.205947 12.306805,69.634387 7.1419175,57.165277 -0.02693292,66.407197 7.6293945e-5,52.910751 0.02730742,39.303415 7.1667277,48.596391 12.374029,36.024822 17.538895,23.555702 5.9347275,25.021584 15.497254,15.497254 25.138349,5.8946698 23.615555,17.514129 36.187115,12.306805 48.656226,7.1419175 39.414306,-0.02693292 52.910751,7.6293945e-5 66.518088,0.02730742 57.225112,7.1667277 69.796681,12.374029 82.2658,17.538895 80.799919,5.9347275 90.324248,15.497254 c 9.602585,9.641095 -2.016874,8.118301 3.19045,20.689861 5.164887,12.469111 12.333742,3.227191 12.306732,16.723636 z"
       inkscape:transform-center-y="-1.4925032e-06"/>
    <circle
       style="display:inline;fill:#ffffff;fill-opacity:1;stroke:none;stroke-width:1.95538473;stroke-miterlimit:4;stroke-dasharray:none;stroke-opacity:1"
       id="circle865"
       cx="52.910751"
       cy="52.910748"
       r="26.458332" />
  </g>
  <g
     inkscape:label="Capa 1"
     inkscape:groupmode="layer"
     id="layer1"
     transform="translate(-54.428498,-70.982147)"
     style="display:none">
    <g
       transform="translate(54.422582,70.97622)"
       id="g867"
       style="display:inline;fill:#ffffff" />
  </g>
</svg>
