<?xml version="1.0" encoding="UTF-8" standalone="no"?>
<!-- Created with Inkscape (http://www.inkscape.org/) -->

<svg
   xmlns:dc="http://purl.org/dc/elements/1.1/"
   xmlns:cc="http://creativecommons.org/ns#"
   xmlns:rdf="http://www.w3.org/1999/02/22-rdf-syntax-ns#"
   xmlns:svg="http://www.w3.org/2000/svg"
   xmlns="http://www.w3.org/2000/svg"
   xmlns:sodipodi="http://sodipodi.sourceforge.net/DTD/sodipodi-0.dtd"
   xmlns:inkscape="http://www.inkscape.org/namespaces/inkscape"
   width="95"
   height="50"
   viewBox="0 0 25.135416 13.229167"
   version="1.1"
   id="svg6060"
   inkscape:version="0.92.4 (5da689c313, 2019-01-14)"
   sodipodi:docname="holo_fNet.svg">
  <defs
     id="defs6054">
    <clipPath
       id="clip-path">
      <path
         inkscape:connector-curvature="0"
         class="cls-1"
         d="m 318.5,1996.9 19,-22.6 a 29.49,29.49 0 0 1 0,45.19 z"
         id="path7185" />
    </clipPath>
  </defs>
  <sodipodi:namedview
     id="base"
     pagecolor="#ffffff"
     bordercolor="#666666"
     borderopacity="1.0"
     inkscape:pageopacity="0.0"
     inkscape:pageshadow="2"
     inkscape:zoom="0.98994949"
     inkscape:cx="-165.06953"
     inkscape:cy="130.44683"
     inkscape:document-units="mm"
     inkscape:current-layer="layer1"
     showgrid="false"
     units="px"
     fit-margin-top="0"
     fit-margin-left="0"
     fit-margin-right="0"
     fit-margin-bottom="0"
     inkscape:window-width="1920"
     inkscape:window-height="1057"
     inkscape:window-x="-8"
     inkscape:window-y="-8"
     inkscape:window-maximized="1" />
  <metadata
     id="metadata6057">
    <rdf:RDF>
      <cc:Work
         rdf:about="">
        <dc:format>image/svg+xml</dc:format>
        <dc:type
           rdf:resource="http://purl.org/dc/dcmitype/StillImage" />
        <dc:title></dc:title>
      </cc:Work>
    </rdf:RDF>
  </metadata>
  <g
     inkscape:label="Capa 1"
     inkscape:groupmode="layer"
     id="layer1"
     transform="translate(-99.443117,-115.42024)">
    <g
       transform="matrix(0.26691081,0,0,0.25806909,-86.745479,-400.75962)"
       id="g7311">
      <path
         inkscape:connector-curvature="0"
         class="cls-2"
         d="m 702.11,2051.42 a 4.46,4.46 0 0 1 -3.28,-1.25 4.27,4.27 0 0 1 -1.26,-3.14 v -41.61 A 4.32,4.32 0 0 1 702,2001 h 23.41 a 4.41,4.41 0 0 1 3.13,1.19 4,4 0 0 1 1.26,3.06 3.8,3.8 0 0 1 -1.26,2.81 4.31,4.31 0 0 1 -3.13,1.22 h -19.49 l 0.65,-0.86 v 14.47 l -0.5,-0.93 h 16.06 a 4.37,4.37 0 0 1 3.13,1.19 4,4 0 0 1 1.26,3 3.8,3.8 0 0 1 -1.26,2.81 4.31,4.31 0 0 1 -3.13,1.23 h -16.21 l 0.65,-0.65 V 2047 a 4.14,4.14 0 0 1 -1.33,3.14 4.44,4.44 0 0 1 -3.13,1.28 z"
         id="path7303" />
      <path
         inkscape:connector-curvature="0"
         class="cls-2"
         d="m 745.65,2005.83 a 7.91,7.91 0 0 1 4.3,1.05 6.19,6.19 0 0 1 2.44,2.86 10.18,10.18 0 0 1 0.77,4 v 12.85 a 0.81,0.81 0 0 1 -0.25,0.59 0.84,0.84 0 0 1 -1.2,0 0.88,0.88 0 0 1 -0.23,-0.59 v -12.68 a 8.58,8.58 0 0 0 -0.6,-3.27 5.12,5.12 0 0 0 -1.94,-2.35 6.1,6.1 0 0 0 -3.46,-0.88 8,8 0 0 0 -3.61,0.88 8.55,8.55 0 0 0 -2.92,2.35 5.16,5.16 0 0 0 -1.15,3.27 v 12.68 a 0.85,0.85 0 0 1 -0.84,0.84 0.78,0.78 0 0 1 -0.61,-0.25 0.88,0.88 0 0 1 -0.23,-0.59 v -19.27 a 0.85,0.85 0 0 1 0.84,-0.84 0.81,0.81 0 0 1 0.61,0.25 0.88,0.88 0 0 1 0.23,0.59 v 4.12 l -1,2 a 5.7,5.7 0 0 1 0.8,-2.89 8.76,8.76 0 0 1 2.1,-2.46 10.45,10.45 0 0 1 2.87,-1.68 8.75,8.75 0 0 1 3.08,-0.58 z"
         id="path7305" />
      <path
         inkscape:connector-curvature="0"
         class="cls-2"
         d="m 769.41,2027.87 a 11.27,11.27 0 0 1 -5.56,-1.34 9.78,9.78 0 0 1 -3.8,-3.8 11.49,11.49 0 0 1 -1.39,-5.77 12.27,12.27 0 0 1 1.37,-6 10,10 0 0 1 3.52,-3.8 8.67,8.67 0 0 1 4.6,-1.32 10.65,10.65 0 0 1 3.44,0.57 8.43,8.43 0 0 1 3,1.76 9,9 0 0 1 2.14,3 10.89,10.89 0 0 1 0.9,4.26 0.85,0.85 0 0 1 -0.25,0.61 0.78,0.78 0 0 1 -0.59,0.27 h -17.12 l -0.25,-1.59 h 16.91 l -0.42,0.38 v -0.76 a 6.94,6.94 0 0 0 -1.4,-3.73 7.85,7.85 0 0 0 -2.88,-2.29 8.17,8.17 0 0 0 -3.48,-0.78 7,7 0 0 0 -2.65,0.57 8.07,8.07 0 0 0 -2.56,1.72 8.76,8.76 0 0 0 -1.91,2.92 11.55,11.55 0 0 0 0.3,8.81 8.13,8.13 0 0 0 3.06,3.44 9.12,9.12 0 0 0 5,1.3 7.45,7.45 0 0 0 2.68,-0.48 8.55,8.55 0 0 0 2.27,-1.28 7.78,7.78 0 0 0 1.64,-1.72 1,1 0 0 1 0.71,-0.38 0.66,0.66 0 0 1 0.5,0.23 0.77,0.77 0 0 1 0.21,0.53 0.79,0.79 0 0 1 -0.16,0.5 12.45,12.45 0 0 1 -3.34,2.94 8.41,8.41 0 0 1 -4.49,1.23 z"
         id="path7307" />
      <path
         inkscape:connector-curvature="0"
         class="cls-2"
         d="m 781.2,2006.33 h 9.74 a 0.76,0.76 0 0 1 0.57,0.26 0.79,0.79 0 0 1 0.23,0.54 0.78,0.78 0 0 1 -0.23,0.57 0.81,0.81 0 0 1 -0.57,0.23 h -9.74 a 0.74,0.74 0 0 1 -0.54,-0.25 0.77,0.77 0 0 1 -0.26,-0.55 0.73,0.73 0 0 1 0.26,-0.56 0.76,0.76 0 0 1 0.54,-0.24 z m 4.28,-6.16 a 0.76,0.76 0 0 1 0.61,0.25 0.79,0.79 0 0 1 0.23,0.58 v 21.87 a 4.37,4.37 0 0 0 0.36,2 1.73,1.73 0 0 0 0.9,0.84 3.16,3.16 0 0 0 1,0.19 1.21,1.21 0 0 0 0.5,-0.09 1.52,1.52 0 0 1 0.51,-0.08 0.67,0.67 0 0 1 0.5,0.23 0.71,0.71 0 0 1 -0.27,1.18 2.42,2.42 0 0 1 -1.2,0.27 h -0.9 a 3.51,3.51 0 0 1 -1.38,-0.38 2.85,2.85 0 0 1 -1.24,-1.3 6,6 0 0 1 -0.51,-2.79 v -22 a 0.78,0.78 0 0 1 0.26,-0.58 0.77,0.77 0 0 1 0.63,-0.19 z"
         id="path7309" />
    </g>
  </g>
</svg>
