<?xml version="1.0" encoding="UTF-8" standalone="no"?>
<!-- Created with Inkscape (http://www.inkscape.org/) -->

<svg
   xmlns:dc="http://purl.org/dc/elements/1.1/"
   xmlns:cc="http://creativecommons.org/ns#"
   xmlns:rdf="http://www.w3.org/1999/02/22-rdf-syntax-ns#"
   xmlns:svg="http://www.w3.org/2000/svg"
   xmlns="http://www.w3.org/2000/svg"
   xmlns:sodipodi="http://sodipodi.sourceforge.net/DTD/sodipodi-0.dtd"
   xmlns:inkscape="http://www.inkscape.org/namespaces/inkscape"
   width="110"
   height="70"
   viewBox="0 0 29.104166 18.520834"
   version="1.1"
   id="svg6060"
   inkscape:version="0.92.4 (5da689c313, 2019-01-14)"
   sodipodi:docname="holo_fb.svg">
  <defs
     id="defs6054">
    <clipPath
       id="clip-path">
      <path
         inkscape:connector-curvature="0"
         class="cls-1"
         d="m 318.5,1996.9 19,-22.6 a 29.49,29.49 0 0 1 0,45.19 z"
         id="path7185" />
    </clipPath>
  </defs>
  <sodipodi:namedview
     id="base"
     pagecolor="#ffffff"
     bordercolor="#666666"
     borderopacity="1.0"
     inkscape:pageopacity="0.0"
     inkscape:pageshadow="2"
     inkscape:zoom="0.98994949"
     inkscape:cx="-73.966268"
     inkscape:cy="30.883195"
     inkscape:document-units="mm"
     inkscape:current-layer="g7345"
     showgrid="false"
     units="px"
     fit-margin-top="0"
     fit-margin-left="0"
     fit-margin-right="0"
     fit-margin-bottom="0"
     inkscape:window-width="1920"
     inkscape:window-height="1057"
     inkscape:window-x="-8"
     inkscape:window-y="-8"
     inkscape:window-maximized="1" />
  <metadata
     id="metadata6057">
    <rdf:RDF>
      <cc:Work
         rdf:about="">
        <dc:format>image/svg+xml</dc:format>
        <dc:type
           rdf:resource="http://purl.org/dc/dcmitype/StillImage" />
        <dc:title></dc:title>
      </cc:Work>
    </rdf:RDF>
  </metadata>
  <g
     inkscape:label="Capa 1"
     inkscape:groupmode="layer"
     id="layer1"
     transform="translate(-75.338712,-83.785698)">
    <g
       transform="matrix(0.26796635,0,0,0.26862158,13.063674,-446.60312)"
       id="g7345">
      <g
         class="cls-16"
         clip-path="url(#clip-path)"
         id="g7337">
        <g
           id="g7335">
          <g
             id="g7327">
            <circle
               class="cls-2"
               cx="318.32001"
               cy="1997"
               r="1.24"
               id="circle7323" />
            <path
               inkscape:connector-curvature="0"
               class="cls-2"
               d="m 319.19,1997 a 0.87,0.87 0 0 1 -1.73,0 0.87,0.87 0 0 1 1.73,0 c 0,0.48 0.77,0.48 0.74,0 a 1.61,1.61 0 1 0 -1.67,1.61 1.64,1.64 0 0 0 1.67,-1.61 c 0.07,-0.48 -0.71,-0.47 -0.74,0 z"
               id="path7325" />
          </g>
          <path
             inkscape:connector-curvature="0"
             class="cls-2"
             d="m 325.39,1997 c -0.49,9 -14.13,9.13 -14.13,0 0,-9.13 13.64,-9 14.13,0 0,0.48 0.77,0.48 0.74,0 a 7.81,7.81 0 1 0 -8.21,7.79 c 4.58,0.23 8,-3.38 8.21,-7.79 0.03,-0.48 -0.72,-0.47 -0.74,0 z"
             id="path7329" />
          <path
             inkscape:connector-curvature="0"
             class="cls-2"
             d="m 332.83,1997 c -0.36,7.89 -6.34,14.5 -14.51,14.5 a 14.5,14.5 0 0 1 0,-29 c 8.18,0 14.15,6.6 14.51,14.5 0,0.48 0.76,0.48 0.74,0 -0.37,-8.29 -6.67,-15.24 -15.25,-15.24 a 15.25,15.25 0 0 0 0,30.49 c 8.57,0 14.88,-7 15.25,-15.25 0.02,-0.48 -0.72,-0.47 -0.74,0 z"
             id="path7331" />
          <path
             inkscape:connector-curvature="0"
             class="cls-2"
             d="m 340.26,1997 c -0.36,11.94 -9.72,21.94 -21.94,21.94 A 22.18,22.18 0 0 1 296.38,1997 c -0.09,-11.71 9.65,-21.53 21.26,-21.92 12.49,-0.41 22.26,9.74 22.62,21.92 a 0.38,0.38 0 0 0 0.75,0 c -0.63,-20.73 -27,-30.84 -40.41,-14.14 -12.66,15.79 1.23,39.64 21.18,36.55 11.16,-1.73 18.89,-11.31 19.23,-22.41 a 0.38,0.38 0 0 0 -0.75,0 z"
             id="path7333" />
        </g>
      </g>
      <g
         id="g7343">
        <path
           inkscape:connector-curvature="0"
           class="cls-2"
           d="m 236.94,2043.38 a 4.43,4.43 0 0 1 -3.28,-1.26 4.26,4.26 0 0 1 -1.26,-3.13 v -41.62 a 4.3,4.3 0 0 1 4.39,-4.39 h 23.4 a 4.35,4.35 0 0 1 3.13,1.19 4,4 0 0 1 1.26,3.06 3.79,3.79 0 0 1 -1.26,2.8 4.3,4.3 0 0 1 -3.13,1.23 h -19.44 l 0.65,-0.87 v 14.48 l -0.5,-0.94 h 16 a 4.39,4.39 0 0 1 3.13,1.19 4,4 0 0 1 1.26,3.06 3.83,3.83 0 0 1 -1.26,2.81 4.33,4.33 0 0 1 -3.13,1.22 h -16.2 l 0.65,-0.65 V 2039 a 4.13,4.13 0 0 1 -1.33,3.13 4.42,4.42 0 0 1 -3.08,1.25 z"
           id="path7339" />
        <path
           inkscape:connector-curvature="0"
           class="cls-2"
           d="m 295.4,1993 q 6.92,0 10.3,3.24 3.38,3.24 3.38,9.57 a 10.25,10.25 0 0 1 -6.55,9.9 20.05,20.05 0 0 1 -8,1.41 l 0.28,-3.24 a 24.82,24.82 0 0 1 5.12,0.61 19.31,19.31 0 0 1 5.58,2.16 12.78,12.78 0 0 1 4.49,4.35 13,13 0 0 1 1.76,7.09 17.1,17.1 0 0 1 -1.54,7.78 12.13,12.13 0 0 1 -4.07,4.68 15.82,15.82 0 0 1 -5.4,2.27 27.24,27.24 0 0 1 -5.55,0.61 h -17.94 a 4.31,4.31 0 0 1 -4.4,-4.39 v -41.62 a 4.31,4.31 0 0 1 4.4,-4.39 z m -1.3,8.49 h -12.81 l 0.93,-1.15 v 13 l -0.86,-0.64 h 13 a 5.72,5.72 0 0 0 3.74,-1.37 4.82,4.82 0 0 0 1.66,-4 q 0,-3.11 -1.55,-4.5 a 5.81,5.81 0 0 0 -4.11,-1.36 z m 0.58,19.73 h -13.1 l 0.64,-0.57 v 15.19 l -0.72,-0.72 h 13.68 a 7.52,7.52 0 0 0 5.26,-1.77 6.76,6.76 0 0 0 1.94,-5.29 q 0,-3.24 -1.29,-4.68 a 5.58,5.58 0 0 0 -3.1,-1.8 17,17 0 0 0 -3.31,-0.38 z"
           id="path7341" />
      </g>
    </g>
  </g>
</svg>
