<?xml version="1.0" encoding="UTF-8" standalone="no"?>
<!-- Created with Inkscape (http://www.inkscape.org/) -->

<svg
   xmlns:dc="http://purl.org/dc/elements/1.1/"
   xmlns:cc="http://creativecommons.org/ns#"
   xmlns:rdf="http://www.w3.org/1999/02/22-rdf-syntax-ns#"
   xmlns:svg="http://www.w3.org/2000/svg"
   xmlns="http://www.w3.org/2000/svg"
   xmlns:sodipodi="http://sodipodi.sourceforge.net/DTD/sodipodi-0.dtd"
   xmlns:inkscape="http://www.inkscape.org/namespaces/inkscape"
   width="118"
   height="65"
   viewBox="0 0 31.220833 17.197917"
   version="1.1"
   id="svg6060"
   inkscape:version="0.92.4 (5da689c313, 2019-01-14)"
   sodipodi:docname="holo_as.svg">
  <defs
     id="defs6054">
    <clipPath
       id="clip-path">
      <path
         inkscape:connector-curvature="0"
         class="cls-1"
         d="m 318.5,1996.9 19,-22.6 a 29.49,29.49 0 0 1 0,45.19 z"
         id="path7185" />
    </clipPath>
  </defs>
  <sodipodi:namedview
     id="base"
     pagecolor="#ffffff"
     bordercolor="#666666"
     borderopacity="1.0"
     inkscape:pageopacity="0.0"
     inkscape:pageshadow="2"
     inkscape:zoom="0.98994949"
     inkscape:cx="-129.32283"
     inkscape:cy="114.91728"
     inkscape:document-units="mm"
     inkscape:current-layer="layer1"
     showgrid="false"
     units="px"
     fit-margin-top="0"
     fit-margin-left="0"
     fit-margin-right="0"
     fit-margin-bottom="0"
     inkscape:window-width="1920"
     inkscape:window-height="1057"
     inkscape:window-x="-8"
     inkscape:window-y="-8"
     inkscape:window-maximized="1" />
  <metadata
     id="metadata6057">
    <rdf:RDF>
      <cc:Work
         rdf:about="">
        <dc:format>image/svg+xml</dc:format>
        <dc:type
           rdf:resource="http://purl.org/dc/dcmitype/StillImage" />
        <dc:title></dc:title>
      </cc:Work>
    </rdf:RDF>
  </metadata>
  <g
     inkscape:label="Capa 1"
     inkscape:groupmode="layer"
     id="layer1"
     transform="translate(-89.985135,-107.34263)">
    <g
       transform="matrix(0.26552537,0,0,0.26445027,-32.639431,-415.35126)"
       id="g7363">
      <g
         id="g7355">
        <path
           inkscape:connector-curvature="0"
           class="cls-2"
           d="m 553.77,1976.84 v 25.83 a 0.32,0.32 0 0 0 0.63,0 v -25.83 a 0.32,0.32 0 0 0 -0.63,0 z"
           id="path7347" />
        <path
           inkscape:connector-curvature="0"
           class="cls-2"
           d="m 562.11,1976.84 v 25.83 a 0.31,0.31 0 0 0 0.62,0 v -25.83 a 0.31,0.31 0 0 0 -0.62,0 z"
           id="path7349" />
        <path
           inkscape:connector-curvature="0"
           class="cls-2"
           d="m 570.44,1976.84 v 25.83 a 0.32,0.32 0 0 0 0.63,0 v -25.83 a 0.32,0.32 0 0 0 -0.63,0 z"
           id="path7351" />
        <path
           inkscape:connector-curvature="0"
           class="cls-2"
           d="m 578.77,1976.84 v 25.83 a 0.32,0.32 0 0 0 0.63,0 v -25.83 a 0.32,0.32 0 0 0 -0.63,0 z"
           id="path7353" />
      </g>
      <g
         id="g7361">
        <path
           inkscape:connector-curvature="0"
           class="cls-2"
           d="m 485,2001.74 -15.55,36.58 a 4.41,4.41 0 0 1 -1.55,2.12 3.76,3.76 0 0 1 -2.27,0.76 3.63,3.63 0 0 1 -2.88,-1.08 4,4 0 0 1 -0.93,-2.67 4.85,4.85 0 0 1 0.21,-1.36 L 480,1993 a 4.68,4.68 0 0 1 1.76,-2.23 3.77,3.77 0 0 1 2.56,-0.65 4.31,4.31 0 0 1 4,2.88 l 17.68,42.22 a 4.9,4.9 0 0 1 0.37,1.73 4,4 0 0 1 -1.26,3.1 4.09,4.09 0 0 1 -2.78,1.15 3.84,3.84 0 0 1 -2.34,-0.79 5.27,5.27 0 0 1 -1.62,-2.16 l -15.48,-36.08 z m -13.32,27.79 4,-8.28 h 19.44 l 1.37,8.28 z"
           id="path7357" />
        <path
           inkscape:connector-curvature="0"
           class="cls-2"
           d="m 528.69,2041.56 a 30.36,30.36 0 0 1 -9.07,-1.26 21.75,21.75 0 0 1 -7.7,-4.43 5.56,5.56 0 0 1 -1.44,-1.8 4.42,4.42 0 0 1 -0.51,-2 4.13,4.13 0 0 1 1.19,-2.91 4,4 0 0 1 3,-1.26 3.85,3.85 0 0 1 2.45,0.86 22.67,22.67 0 0 0 5.44,3.39 17.05,17.05 0 0 0 6.65,1.15 14,14 0 0 0 4.9,-0.83 9.6,9.6 0 0 0 3.6,-2.23 4.5,4.5 0 0 0 1.37,-3.21 5.42,5.42 0 0 0 -1.3,-3.67 9.7,9.7 0 0 0 -4,-2.55 30,30 0 0 0 -6.76,-1.62 30.63,30.63 0 0 1 -6.85,-1.77 16,16 0 0 1 -4.93,-3 12.17,12.17 0 0 1 -3,-4.32 14.79,14.79 0 0 1 -1,-5.58 13.17,13.17 0 0 1 2.41,-8 15.11,15.11 0 0 1 6.51,-5 23.07,23.07 0 0 1 9.08,-1.73 26.1,26.1 0 0 1 8.67,1.4 20.24,20.24 0 0 1 6.52,3.57 4.8,4.8 0 0 1 2.09,3.81 4.08,4.08 0 0 1 -1.23,2.88 3.8,3.8 0 0 1 -2.88,1.3 3.17,3.17 0 0 1 -1.9,-0.75 13.06,13.06 0 0 0 -3.1,-1.91 27.69,27.69 0 0 0 -4.1,-1.51 14.79,14.79 0 0 0 -4,-0.61 14.94,14.94 0 0 0 -5.22,0.79 7.16,7.16 0 0 0 -3.21,2.16 5,5 0 0 0 -1.08,3.17 5.11,5.11 0 0 0 1.26,3.56 8.54,8.54 0 0 0 3.64,2.23 40.35,40.35 0 0 0 5.69,1.48 57.73,57.73 0 0 1 7.59,1.87 17.9,17.9 0 0 1 5.44,2.77 10.54,10.54 0 0 1 3.24,4.25 16,16 0 0 1 1.08,6.23 12.9,12.9 0 0 1 -2.59,8.06 16.59,16.59 0 0 1 -6.81,5.19 22.89,22.89 0 0 1 -9.14,1.83 z"
           id="path7359" />
      </g>
    </g>
  </g>
</svg>
